<mxfile host="app.diagrams.net" agent="Mozilla/5.0 (Windows NT 10.0; Win64; x64) AppleWebKit/537.36 (KHTML, like Gecko) Chrome/141.0.0.0 Safari/537.36" version="28.2.8">
  <diagram name="第 1 页" id="Ydnq8vHd9Uz1Nw4_eRdN">
    <mxGraphModel dx="2893" dy="2280" grid="1" gridSize="10" guides="1" tooltips="1" connect="1" arrows="1" fold="1" page="1" pageScale="1" pageWidth="827" pageHeight="1169" math="0" shadow="0">
      <root>
        <mxCell id="0" />
        <mxCell id="1" parent="0" />
        <UserObject label="" mermaidData="{&#xa;  &quot;data&quot;: &quot;%%{init: {\n  \&quot;theme\&quot;: \&quot;base\&quot;,\n  \&quot;themeVariables\&quot;: {\n    \&quot;fontSize\&quot;: \&quot;21px\&quot;,\n    \&quot;fontFamily\&quot;: \&quot;Microsoft YaHei, Noto Sans CJK SC, PingFang SC, Arial, sans-serif\&quot;\n  }\n}}%%\nflowchart TD\n    A[开始]\n    B[收集信息: 就绪集 高优任务 可用资源]\n    C{满足抢占条件?}\n    Cdesc[抢占条件: 高优到达且资源不足; 高优收益密度更高; 净收益大于阈值; 被抢任务已过最小运行量]\n    D[抢占: 暂停低优或低收益任务]\n    E[接纳高优:SRPT]\n    F[CLP 细化: 选节点与资源]\n    G[执行并记录指标]\n    H[下一时隙]\n\n    A --&gt; B --&gt; C\n    C -- 否 --&gt; E\n    C -- 是 --&gt; D --&gt; E\n    E --&gt; F --&gt; G --&gt; H --&gt; B\n    C -. 说明 .-&gt; Cdesc&quot;&#xa;}" id="TOW6jr9MmeM6mJALODSb-1">
          <mxCell style="shape=image;noLabel=1;verticalAlign=top;imageAspect=1;image=data:image/svg+xml,PHN2ZyBpZD0iZ2VNZXJtYWlkT3V0cHV0LTE3NjEzOTg4NDcyOTMiIHdpZHRoPSIxMDAlIiB4bWxucz0iaHR0cDovL3d3dy53My5vcmcvMjAwMC9zdmciIGNsYXNzPSJmbG93Y2hhcnQiIHN0eWxlPSJtYXgtd2lkdGg6IDY2Ni4zMzMwMDc4MTI1cHg7IiB2aWV3Qm94PSIwIDAgNjY2LjMzMzAwNzgxMjUgMTIxNC40MTY3NDgwNDY4NzUiIHJvbGU9ImdyYXBoaWNzLWRvY3VtZW50IGRvY3VtZW50IiBhcmlhLXJvbGVkZXNjcmlwdGlvbj0iZmxvd2NoYXJ0LXYyIj48c3R5bGU+I2dlTWVybWFpZE91dHB1dC0xNzYxMzk4ODQ3Mjkze2ZvbnQtc2l6ZToyMXB4O2ZpbGw6IzMzMzt9QGtleWZyYW1lcyBlZGdlLWFuaW1hdGlvbi1mcmFtZXtmcm9te3N0cm9rZS1kYXNob2Zmc2V0OjA7fX1Aa2V5ZnJhbWVzIGRhc2h7dG97c3Ryb2tlLWRhc2hvZmZzZXQ6MDt9fSNnZU1lcm1haWRPdXRwdXQtMTc2MTM5ODg0NzI5MyAuZWRnZS1hbmltYXRpb24tc2xvd3tzdHJva2UtZGFzaGFycmF5OjksNSFpbXBvcnRhbnQ7c3Ryb2tlLWRhc2hvZmZzZXQ6OTAwO2FuaW1hdGlvbjpkYXNoIDUwcyBsaW5lYXIgaW5maW5pdGU7c3Ryb2tlLWxpbmVjYXA6cm91bmQ7fSNnZU1lcm1haWRPdXRwdXQtMTc2MTM5ODg0NzI5MyAuZWRnZS1hbmltYXRpb24tZmFzdHtzdHJva2UtZGFzaGFycmF5OjksNSFpbXBvcnRhbnQ7c3Ryb2tlLWRhc2hvZmZzZXQ6OTAwO2FuaW1hdGlvbjpkYXNoIDIwcyBsaW5lYXIgaW5maW5pdGU7c3Ryb2tlLWxpbmVjYXA6cm91bmQ7fSNnZU1lcm1haWRPdXRwdXQtMTc2MTM5ODg0NzI5MyAuZXJyb3ItaWNvbntmaWxsOmhzbCgyMjAuNTg4MjM1Mjk0MSwgMTAwJSwgOTguMzMzMzMzMzMzMyUpO30jZ2VNZXJtYWlkT3V0cHV0LTE3NjEzOTg4NDcyOTMgLmVycm9yLXRleHR7ZmlsbDpyZ2IoOC41MDAwMDAwMDAyLCA1Ljc1MDAwMDAwMDEsIDApO3N0cm9rZTpyZ2IoOC41MDAwMDAwMDAyLCA1Ljc1MDAwMDAwMDEsIDApO30jZ2VNZXJtYWlkT3V0cHV0LTE3NjEzOTg4NDcyOTMgLmVkZ2UtdGhpY2tuZXNzLW5vcm1hbHtzdHJva2Utd2lkdGg6MXB4O30jZ2VNZXJtYWlkT3V0cHV0LTE3NjEzOTg4NDcyOTMgLmVkZ2UtdGhpY2tuZXNzLXRoaWNre3N0cm9rZS13aWR0aDozLjVweDt9I2dlTWVybWFpZE91dHB1dC0xNzYxMzk4ODQ3MjkzIC5lZGdlLXBhdHRlcm4tc29saWR7c3Ryb2tlLWRhc2hhcnJheTowO30jZ2VNZXJtYWlkT3V0cHV0LTE3NjEzOTg4NDcyOTMgLmVkZ2UtdGhpY2tuZXNzLWludmlzaWJsZXtzdHJva2Utd2lkdGg6MDtmaWxsOm5vbmU7fSNnZU1lcm1haWRPdXRwdXQtMTc2MTM5ODg0NzI5MyAuZWRnZS1wYXR0ZXJuLWRhc2hlZHtzdHJva2UtZGFzaGFycmF5OjM7fSNnZU1lcm1haWRPdXRwdXQtMTc2MTM5ODg0NzI5MyAuZWRnZS1wYXR0ZXJuLWRvdHRlZHtzdHJva2UtZGFzaGFycmF5OjI7fSNnZU1lcm1haWRPdXRwdXQtMTc2MTM5ODg0NzI5MyAubWFya2Vye2ZpbGw6IzBiMGIwYjtzdHJva2U6IzBiMGIwYjt9I2dlTWVybWFpZE91dHB1dC0xNzYxMzk4ODQ3MjkzIC5tYXJrZXIuY3Jvc3N7c3Ryb2tlOiMwYjBiMGI7fSNnZU1lcm1haWRPdXRwdXQtMTc2MTM5ODg0NzI5MyBzdmd7Zm9udC1zaXplOjIxcHg7fSNnZU1lcm1haWRPdXRwdXQtMTc2MTM5ODg0NzI5MyBwe21hcmdpbjowO30jZ2VNZXJtYWlkT3V0cHV0LTE3NjEzOTg4NDcyOTMgLmxhYmVse2NvbG9yOiMzMzM7fSNnZU1lcm1haWRPdXRwdXQtMTc2MTM5ODg0NzI5MyAuY2x1c3Rlci1sYWJlbCB0ZXh0e2ZpbGw6cmdiKDguNTAwMDAwMDAwMiwgNS43NTAwMDAwMDAxLCAwKTt9I2dlTWVybWFpZE91dHB1dC0xNzYxMzk4ODQ3MjkzIC5jbHVzdGVyLWxhYmVsIHNwYW57Y29sb3I6cmdiKDguNTAwMDAwMDAwMiwgNS43NTAwMDAwMDAxLCAwKTt9I2dlTWVybWFpZE91dHB1dC0xNzYxMzk4ODQ3MjkzIC5jbHVzdGVyLWxhYmVsIHNwYW4gcHtiYWNrZ3JvdW5kLWNvbG9yOnRyYW5zcGFyZW50O30jZ2VNZXJtYWlkT3V0cHV0LTE3NjEzOTg4NDcyOTMgLmxhYmVsIHRleHQsI2dlTWVybWFpZE91dHB1dC0xNzYxMzk4ODQ3MjkzIHNwYW57ZmlsbDojMzMzO2NvbG9yOiMzMzM7fSNnZU1lcm1haWRPdXRwdXQtMTc2MTM5ODg0NzI5MyAubm9kZSByZWN0LCNnZU1lcm1haWRPdXRwdXQtMTc2MTM5ODg0NzI5MyAubm9kZSBjaXJjbGUsI2dlTWVybWFpZE91dHB1dC0xNzYxMzk4ODQ3MjkzIC5ub2RlIGVsbGlwc2UsI2dlTWVybWFpZE91dHB1dC0xNzYxMzk4ODQ3MjkzIC5ub2RlIHBvbHlnb24sI2dlTWVybWFpZE91dHB1dC0xNzYxMzk4ODQ3MjkzIC5ub2RlIHBhdGh7ZmlsbDojZmZmNGRkO3N0cm9rZTpoc2woNDAuNTg4MjM1Mjk0MSwgNjAlLCA4My4zMzMzMzMzMzMzJSk7c3Ryb2tlLXdpZHRoOjFweDt9I2dlTWVybWFpZE91dHB1dC0xNzYxMzk4ODQ3MjkzIC5yb3VnaC1ub2RlIC5sYWJlbCB0ZXh0LCNnZU1lcm1haWRPdXRwdXQtMTc2MTM5ODg0NzI5MyAubm9kZSAubGFiZWwgdGV4dCwjZ2VNZXJtYWlkT3V0cHV0LTE3NjEzOTg4NDcyOTMgLmltYWdlLXNoYXBlIC5sYWJlbCwjZ2VNZXJtYWlkT3V0cHV0LTE3NjEzOTg4NDcyOTMgLmljb24tc2hhcGUgLmxhYmVse3RleHQtYW5jaG9yOm1pZGRsZTt9I2dlTWVybWFpZE91dHB1dC0xNzYxMzk4ODQ3MjkzIC5ub2RlIC5rYXRleCBwYXRoe2ZpbGw6IzAwMDtzdHJva2U6IzAwMDtzdHJva2Utd2lkdGg6MXB4O30jZ2VNZXJtYWlkT3V0cHV0LTE3NjEzOTg4NDcyOTMgLnJvdWdoLW5vZGUgLmxhYmVsLCNnZU1lcm1haWRPdXRwdXQtMTc2MTM5ODg0NzI5MyAubm9kZSAubGFiZWwsI2dlTWVybWFpZE91dHB1dC0xNzYxMzk4ODQ3MjkzIC5pbWFnZS1zaGFwZSAubGFiZWwsI2dlTWVybWFpZE91dHB1dC0xNzYxMzk4ODQ3MjkzIC5pY29uLXNoYXBlIC5sYWJlbHt0ZXh0LWFsaWduOmNlbnRlcjt9I2dlTWVybWFpZE91dHB1dC0xNzYxMzk4ODQ3MjkzIC5ub2RlLmNsaWNrYWJsZXtjdXJzb3I6cG9pbnRlcjt9I2dlTWVybWFpZE91dHB1dC0xNzYxMzk4ODQ3MjkzIC5yb290IC5hbmNob3IgcGF0aHtmaWxsOiMwYjBiMGIhaW1wb3J0YW50O3N0cm9rZS13aWR0aDowO3N0cm9rZTojMGIwYjBiO30jZ2VNZXJtYWlkT3V0cHV0LTE3NjEzOTg4NDcyOTMgLmFycm93aGVhZFBhdGh7ZmlsbDojMGIwYjBiO30jZ2VNZXJtYWlkT3V0cHV0LTE3NjEzOTg4NDcyOTMgLmVkZ2VQYXRoIC5wYXRoe3N0cm9rZTojMGIwYjBiO3N0cm9rZS13aWR0aDoyLjBweDt9I2dlTWVybWFpZE91dHB1dC0xNzYxMzk4ODQ3MjkzIC5mbG93Y2hhcnQtbGlua3tzdHJva2U6IzBiMGIwYjtmaWxsOm5vbmU7fSNnZU1lcm1haWRPdXRwdXQtMTc2MTM5ODg0NzI5MyAuZWRnZUxhYmVse2JhY2tncm91bmQtY29sb3I6aHNsKC03OS40MTE3NjQ3MDU5LCAxMDAlLCA5My4zMzMzMzMzMzMzJSk7dGV4dC1hbGlnbjpjZW50ZXI7fSNnZU1lcm1haWRPdXRwdXQtMTc2MTM5ODg0NzI5MyAuZWRnZUxhYmVsIHB7YmFja2dyb3VuZC1jb2xvcjpoc2woLTc5LjQxMTc2NDcwNTksIDEwMCUsIDkzLjMzMzMzMzMzMzMlKTt9I2dlTWVybWFpZE91dHB1dC0xNzYxMzk4ODQ3MjkzIC5lZGdlTGFiZWwgcmVjdHtvcGFjaXR5OjAuNTtiYWNrZ3JvdW5kLWNvbG9yOmhzbCgtNzkuNDExNzY0NzA1OSwgMTAwJSwgOTMuMzMzMzMzMzMzMyUpO2ZpbGw6aHNsKC03OS40MTE3NjQ3MDU5LCAxMDAlLCA5My4zMzMzMzMzMzMzJSk7fSNnZU1lcm1haWRPdXRwdXQtMTc2MTM5ODg0NzI5MyAubGFiZWxCa2d7YmFja2dyb3VuZC1jb2xvcjpyZ2JhKDI0My45OTk5OTk5OTk5LCAyMjAuOTk5OTk5OTk5OCwgMjU1LCAwLjUpO30jZ2VNZXJtYWlkT3V0cHV0LTE3NjEzOTg4NDcyOTMgLmNsdXN0ZXIgcmVjdHtmaWxsOmhzbCgyMjAuNTg4MjM1Mjk0MSwgMTAwJSwgOTguMzMzMzMzMzMzMyUpO3N0cm9rZTpoc2woMjIwLjU4ODIzNTI5NDEsIDYwJSwgODguMzMzMzMzMzMzMyUpO3N0cm9rZS13aWR0aDoxcHg7fSNnZU1lcm1haWRPdXRwdXQtMTc2MTM5ODg0NzI5MyAuY2x1c3RlciB0ZXh0e2ZpbGw6cmdiKDguNTAwMDAwMDAwMiwgNS43NTAwMDAwMDAxLCAwKTt9I2dlTWVybWFpZE91dHB1dC0xNzYxMzk4ODQ3MjkzIC5jbHVzdGVyIHNwYW57Y29sb3I6cmdiKDguNTAwMDAwMDAwMiwgNS43NTAwMDAwMDAxLCAwKTt9I2dlTWVybWFpZE91dHB1dC0xNzYxMzk4ODQ3MjkzIGRpdi5tZXJtYWlkVG9vbHRpcHtwb3NpdGlvbjphYnNvbHV0ZTt0ZXh0LWFsaWduOmNlbnRlcjttYXgtd2lkdGg6MjAwcHg7cGFkZGluZzoycHg7Zm9udC1zaXplOjEycHg7YmFja2dyb3VuZDpoc2woMjIwLjU4ODIzNTI5NDEsIDEwMCUsIDk4LjMzMzMzMzMzMzMlKTtib3JkZXI6MXB4IHNvbGlkIGhzbCgyMjAuNTg4MjM1Mjk0MSwgNjAlLCA4OC4zMzMzMzMzMzMzJSk7Ym9yZGVyLXJhZGl1czoycHg7cG9pbnRlci1ldmVudHM6bm9uZTt6LWluZGV4OjEwMDt9I2dlTWVybWFpZE91dHB1dC0xNzYxMzk4ODQ3MjkzIC5mbG93Y2hhcnRUaXRsZVRleHR7dGV4dC1hbmNob3I6bWlkZGxlO2ZvbnQtc2l6ZToxOHB4O2ZpbGw6IzMzMzt9I2dlTWVybWFpZE91dHB1dC0xNzYxMzk4ODQ3MjkzIHJlY3QudGV4dHtmaWxsOm5vbmU7c3Ryb2tlLXdpZHRoOjA7fSNnZU1lcm1haWRPdXRwdXQtMTc2MTM5ODg0NzI5MyAuaWNvbi1zaGFwZSwjZ2VNZXJtYWlkT3V0cHV0LTE3NjEzOTg4NDcyOTMgLmltYWdlLXNoYXBle2JhY2tncm91bmQtY29sb3I6aHNsKC03OS40MTE3NjQ3MDU5LCAxMDAlLCA5My4zMzMzMzMzMzMzJSk7dGV4dC1hbGlnbjpjZW50ZXI7fSNnZU1lcm1haWRPdXRwdXQtMTc2MTM5ODg0NzI5MyAuaWNvbi1zaGFwZSBwLCNnZU1lcm1haWRPdXRwdXQtMTc2MTM5ODg0NzI5MyAuaW1hZ2Utc2hhcGUgcHtiYWNrZ3JvdW5kLWNvbG9yOmhzbCgtNzkuNDExNzY0NzA1OSwgMTAwJSwgOTMuMzMzMzMzMzMzMyUpO3BhZGRpbmc6MnB4O30jZ2VNZXJtYWlkT3V0cHV0LTE3NjEzOTg4NDcyOTMgLmljb24tc2hhcGUgcmVjdCwjZ2VNZXJtYWlkT3V0cHV0LTE3NjEzOTg4NDcyOTMgLmltYWdlLXNoYXBlIHJlY3R7b3BhY2l0eTowLjU7YmFja2dyb3VuZC1jb2xvcjpoc2woLTc5LjQxMTc2NDcwNTksIDEwMCUsIDkzLjMzMzMzMzMzMzMlKTtmaWxsOmhzbCgtNzkuNDExNzY0NzA1OSwgMTAwJSwgOTMuMzMzMzMzMzMzMyUpO30jZ2VNZXJtYWlkT3V0cHV0LTE3NjEzOTg4NDcyOTMgLmxhYmVsLWljb257ZGlzcGxheTppbmxpbmUtYmxvY2s7aGVpZ2h0OjFlbTtvdmVyZmxvdzp2aXNpYmxlO3ZlcnRpY2FsLWFsaWduOi0wLjEyNWVtO30jZ2VNZXJtYWlkT3V0cHV0LTE3NjEzOTg4NDcyOTMgLm5vZGUgLmxhYmVsLWljb24gcGF0aHtmaWxsOmN1cnJlbnRDb2xvcjtzdHJva2U6cmV2ZXJ0O3N0cm9rZS13aWR0aDpyZXZlcnQ7fSNnZU1lcm1haWRPdXRwdXQtMTc2MTM5ODg0NzI5MyA6cm9vdHstLW1lcm1haWQtZm9udC1mYW1pbHk6InRyZWJ1Y2hldCBtcyIsdmVyZGFuYSxhcmlhbCxzYW5zLXNlcmlmO308L3N0eWxlPjxnPjxtYXJrZXIgaWQ9ImdlTWVybWFpZE91dHB1dC0xNzYxMzk4ODQ3MjkzX2Zsb3djaGFydC12Mi1wb2ludEVuZCIgY2xhc3M9Im1hcmtlciBmbG93Y2hhcnQtdjIiIHZpZXdCb3g9IjAgMCAxMCAxMCIgcmVmWD0iNSIgcmVmWT0iNSIgbWFya2VyVW5pdHM9InVzZXJTcGFjZU9uVXNlIiBtYXJrZXJXaWR0aD0iOCIgbWFya2VySGVpZ2h0PSI4IiBvcmllbnQ9ImF1dG8iPjxwYXRoIGQ9Ik0gMCAwIEwgMTAgNSBMIDAgMTAgeiIgY2xhc3M9ImFycm93TWFya2VyUGF0aCIgc3R5bGU9InN0cm9rZS13aWR0aDogMTsgc3Ryb2tlLWRhc2hhcnJheTogMSwgMDsiPjwvcGF0aD48L21hcmtlcj48bWFya2VyIGlkPSJnZU1lcm1haWRPdXRwdXQtMTc2MTM5ODg0NzI5M19mbG93Y2hhcnQtdjItcG9pbnRTdGFydCIgY2xhc3M9Im1hcmtlciBmbG93Y2hhcnQtdjIiIHZpZXdCb3g9IjAgMCAxMCAxMCIgcmVmWD0iNC41IiByZWZZPSI1IiBtYXJrZXJVbml0cz0idXNlclNwYWNlT25Vc2UiIG1hcmtlcldpZHRoPSI4IiBtYXJrZXJIZWlnaHQ9IjgiIG9yaWVudD0iYXV0byI+PHBhdGggZD0iTSAwIDUgTCAxMCAxMCBMIDEwIDAgeiIgY2xhc3M9ImFycm93TWFya2VyUGF0aCIgc3R5bGU9InN0cm9rZS13aWR0aDogMTsgc3Ryb2tlLWRhc2hhcnJheTogMSwgMDsiPjwvcGF0aD48L21hcmtlcj48bWFya2VyIGlkPSJnZU1lcm1haWRPdXRwdXQtMTc2MTM5ODg0NzI5M19mbG93Y2hhcnQtdjItY2lyY2xlRW5kIiBjbGFzcz0ibWFya2VyIGZsb3djaGFydC12MiIgdmlld0JveD0iMCAwIDEwIDEwIiByZWZYPSIxMSIgcmVmWT0iNSIgbWFya2VyVW5pdHM9InVzZXJTcGFjZU9uVXNlIiBtYXJrZXJXaWR0aD0iMTEiIG1hcmtlckhlaWdodD0iMTEiIG9yaWVudD0iYXV0byI+PGNpcmNsZSBjeD0iNSIgY3k9IjUiIHI9IjUiIGNsYXNzPSJhcnJvd01hcmtlclBhdGgiIHN0eWxlPSJzdHJva2Utd2lkdGg6IDE7IHN0cm9rZS1kYXNoYXJyYXk6IDEsIDA7Ij48L2NpcmNsZT48L21hcmtlcj48bWFya2VyIGlkPSJnZU1lcm1haWRPdXRwdXQtMTc2MTM5ODg0NzI5M19mbG93Y2hhcnQtdjItY2lyY2xlU3RhcnQiIGNsYXNzPSJtYXJrZXIgZmxvd2NoYXJ0LXYyIiB2aWV3Qm94PSIwIDAgMTAgMTAiIHJlZlg9Ii0xIiByZWZZPSI1IiBtYXJrZXJVbml0cz0idXNlclNwYWNlT25Vc2UiIG1hcmtlcldpZHRoPSIxMSIgbWFya2VySGVpZ2h0PSIxMSIgb3JpZW50PSJhdXRvIj48Y2lyY2xlIGN4PSI1IiBjeT0iNSIgcj0iNSIgY2xhc3M9ImFycm93TWFya2VyUGF0aCIgc3R5bGU9InN0cm9rZS13aWR0aDogMTsgc3Ryb2tlLWRhc2hhcnJheTogMSwgMDsiPjwvY2lyY2xlPjwvbWFya2VyPjxtYXJrZXIgaWQ9ImdlTWVybWFpZE91dHB1dC0xNzYxMzk4ODQ3MjkzX2Zsb3djaGFydC12Mi1jcm9zc0VuZCIgY2xhc3M9Im1hcmtlciBjcm9zcyBmbG93Y2hhcnQtdjIiIHZpZXdCb3g9IjAgMCAxMSAxMSIgcmVmWD0iMTIiIHJlZlk9IjUuMiIgbWFya2VyVW5pdHM9InVzZXJTcGFjZU9uVXNlIiBtYXJrZXJXaWR0aD0iMTEiIG1hcmtlckhlaWdodD0iMTEiIG9yaWVudD0iYXV0byI+PHBhdGggZD0iTSAxLDEgbCA5LDkgTSAxMCwxIGwgLTksOSIgY2xhc3M9ImFycm93TWFya2VyUGF0aCIgc3R5bGU9InN0cm9rZS13aWR0aDogMjsgc3Ryb2tlLWRhc2hhcnJheTogMSwgMDsiPjwvcGF0aD48L21hcmtlcj48bWFya2VyIGlkPSJnZU1lcm1haWRPdXRwdXQtMTc2MTM5ODg0NzI5M19mbG93Y2hhcnQtdjItY3Jvc3NTdGFydCIgY2xhc3M9Im1hcmtlciBjcm9zcyBmbG93Y2hhcnQtdjIiIHZpZXdCb3g9IjAgMCAxMSAxMSIgcmVmWD0iLTEiIHJlZlk9IjUuMiIgbWFya2VyVW5pdHM9InVzZXJTcGFjZU9uVXNlIiBtYXJrZXJXaWR0aD0iMTEiIG1hcmtlckhlaWdodD0iMTEiIG9yaWVudD0iYXV0byI+PHBhdGggZD0iTSAxLDEgbCA5LDkgTSAxMCwxIGwgLTksOSIgY2xhc3M9ImFycm93TWFya2VyUGF0aCIgc3R5bGU9InN0cm9rZS13aWR0aDogMjsgc3Ryb2tlLWRhc2hhcnJheTogMSwgMDsiPjwvcGF0aD48L21hcmtlcj48ZyBjbGFzcz0icm9vdCI+PGcgY2xhc3M9ImNsdXN0ZXJzIj48L2c+PGcgY2xhc3M9ImVkZ2VQYXRocyI+PHBhdGggZD0iTTQ4Nyw2OS41TDQ4Nyw3My42NjdDNDg3LDc3LjgzMyw0ODcsODYuMTY3LDQ4Nyw5My44MzNDNDg3LDEwMS41LDQ4NywxMDguNSw0ODcsMTEyTDQ4NywxMTUuNSIgaWQ9IkxfQV9CXzAiIGNsYXNzPSJlZGdlLXRoaWNrbmVzcy1ub3JtYWwgZWRnZS1wYXR0ZXJuLXNvbGlkIGVkZ2UtdGhpY2tuZXNzLW5vcm1hbCBlZGdlLXBhdHRlcm4tc29saWQgZmxvd2NoYXJ0LWxpbmsiIHN0eWxlPSI7IiBkYXRhLWVkZ2U9InRydWUiIGRhdGEtZXQ9ImVkZ2UiIGRhdGEtaWQ9IkxfQV9CXzAiIGRhdGEtcG9pbnRzPSJXM3NpZUNJNk5EZzNMakF3TURBd01EUTNOamd6TnpFMkxDSjVJam8yT1M0MWZTeDdJbmdpT2pRNE55NHdNREF3TURBME56WTRNemN4Tml3aWVTSTZPVFF1Tlgwc2V5SjRJam8wT0RjdU1EQXdNREF3TkRjMk9ETTNNVFlzSW5raU9qRXhPUzQxZlYwPSIgbWFya2VyLWVuZD0idXJsKCNnZU1lcm1haWRPdXRwdXQtMTc2MTM5ODg0NzI5M19mbG93Y2hhcnQtdjItcG9pbnRFbmQpIj48L3BhdGg+PHBhdGggZD0iTTM3NS41NzMsMjEyLjVMMzY1LjU4OSwyMTYuNjY3QzM1NS42MDUsMjIwLjgzMywzMzUuNjM2LDIyOS4xNjcsMzI1LjY1MSwyMzYuODMzQzMxNS42NjcsMjQ0LjUsMzE1LjY2NywyNTEuNSwzMTUuNjY3LDI1NUwzMTUuNjY3LDI1OC41IiBpZD0iTF9CX0NfMCIgY2xhc3M9ImVkZ2UtdGhpY2tuZXNzLW5vcm1hbCBlZGdlLXBhdHRlcm4tc29saWQgZWRnZS10aGlja25lc3Mtbm9ybWFsIGVkZ2UtcGF0dGVybi1zb2xpZCBmbG93Y2hhcnQtbGluayIgc3R5bGU9IjsiIGRhdGEtZWRnZT0idHJ1ZSIgZGF0YS1ldD0iZWRnZSIgZGF0YS1pZD0iTF9CX0NfMCIgZGF0YS1wb2ludHM9Ilczc2llQ0k2TXpjMUxqVTNNelF5TmprME5qZzVNelExTENKNUlqb3lNVEl1Tlgwc2V5SjRJam96TVRVdU5qWTJOalkyT1RnME5UVTRNU3dpZVNJNk1qTTNMalY5TEhzaWVDSTZNekUxTGpZMk5qWTJOams0TkRVMU9EQTFMQ0o1SWpveU5qSXVOWDFkIiBtYXJrZXItZW5kPSJ1cmwoI2dlTWVybWFpZE91dHB1dC0xNzYxMzk4ODQ3MjkzX2Zsb3djaGFydC12Mi1wb2ludEVuZCkiPjwvcGF0aD48cGF0aCBkPSJNMzE1LjY2Nyw0NTkuNDE3TDMxNS42NjcsNDY2LjI1QzMxNS42NjcsNDczLjA4MywzMTUuNjY3LDQ4Ni43NSwzMTUuNjY3LDUxNi4wNDJDMzE1LjY2Nyw1NDUuMzMzLDMxNS42NjcsNTkwLjI1LDMxNS42NjcsNjMyLjVDMzE1LjY2Nyw2NzQuNzUsMzE1LjY2Nyw3MTQuMzMzLDMyMS43NDEsNzM3LjkzN0MzMjcuODE2LDc2MS41NDEsMzM5Ljk2NSw3NjkuMTY2LDM0Ni4wNCw3NzIuOTc4TDM1Mi4xMTQsNzc2Ljc5IiBpZD0iTF9DX0VfMCIgY2xhc3M9ImVkZ2UtdGhpY2tuZXNzLW5vcm1hbCBlZGdlLXBhdHRlcm4tc29saWQgZWRnZS10aGlja25lc3Mtbm9ybWFsIGVkZ2UtcGF0dGVybi1zb2xpZCBmbG93Y2hhcnQtbGluayIgc3R5bGU9IjsiIGRhdGEtZWRnZT0idHJ1ZSIgZGF0YS1ldD0iZWRnZSIgZGF0YS1pZD0iTF9DX0VfMCIgZGF0YS1wb2ludHM9Ilczc2llQ0k2TXpFMUxqWTJOalkyTmprNE5EVTFPREExTENKNUlqbzBOVGt1TkRFMk5qY3hOelV5T1RJNU5uMHNleUo0SWpvek1UVXVOalkyTmpZMk9UZzBOVFU0TVN3aWVTSTZOVEF3TGpReE5qWTNNVGMxTWpreU9UZDlMSHNpZUNJNk16RTFMalkyTmpZMk5qazRORFUxT0RFc0lua2lPall6TlM0eE5qWTJOekUzTlRJNU1qazNmU3g3SW5naU9qTXhOUzQyTmpZMk5qWTVPRFExTlRneExDSjVJam8zTlRNdU9URTJOamN4TnpVeU9USTVOMzBzZXlKNElqb3pOVFV1TlRBeU1qUXlOVFF4TmpNek9Td2llU0k2TnpjNExqa3hOalkzTVRjMU1qa3lPVGQ5WFE9PSIgbWFya2VyLWVuZD0idXJsKCNnZU1lcm1haWRPdXRwdXQtMTc2MTM5ODg0NzI5M19mbG93Y2hhcnQtdjItcG9pbnRFbmQpIj48L3BhdGg+PHBhdGggZD0iTTM3MC44MjcsNDA0LjI1NkwzOTEuMjQ1LDQyMC4yODNDNDExLjY2Myw0MzYuMzEsNDUyLjQ5OCw0NjguMzYzLDQ3Mi45MTYsNDk4LjQzMkM0OTMuMzMzLDUyOC41LDQ5My4zMzMsNTU2LjU4Myw0OTMuMzMzLDU3MC42MjVMNDkzLjMzMyw1ODQuNjY3IiBpZD0iTF9DX0RfMCIgY2xhc3M9ImVkZ2UtdGhpY2tuZXNzLW5vcm1hbCBlZGdlLXBhdHRlcm4tc29saWQgZWRnZS10aGlja25lc3Mtbm9ybWFsIGVkZ2UtcGF0dGVybi1zb2xpZCBmbG93Y2hhcnQtbGluayIgc3R5bGU9IjsiIGRhdGEtZWRnZT0idHJ1ZSIgZGF0YS1ldD0iZWRnZSIgZGF0YS1pZD0iTF9DX0RfMCIgZGF0YS1wb2ludHM9Ilczc2llQ0k2TXpjd0xqZ3lOekV6TnpVd05qSTRNemdzSW5raU9qUXdOQzR5TlRZeU1ERXlNekV5TURNNU0zMHNleUo0SWpvME9UTXVNek16TXpNek9UWTVNVEUyTWl3aWVTSTZOVEF3TGpReE5qWTNNVGMxTWpreU9UZDlMSHNpZUNJNk5Ea3pMak16TXpNek16azJPVEV4TmpJc0lua2lPalU0T0M0Mk5qWTJOekUzTlRJNU1qazNmVjA9IiBtYXJrZXItZW5kPSJ1cmwoI2dlTWVybWFpZE91dHB1dC0xNzYxMzk4ODQ3MjkzX2Zsb3djaGFydC12Mi1wb2ludEVuZCkiPjwvcGF0aD48cGF0aCBkPSJNNDkzLjMzMyw2ODEuNjY3TDQ5My4zMzMsNjkzLjcwOEM0OTMuMzMzLDcwNS43NSw0OTMuMzMzLDcyOS44MzMsNDg3LjI1OSw3NDUuNjg3QzQ4MS4xODQsNzYxLjU0MSw0NjkuMDM1LDc2OS4xNjYsNDYyLjk2LDc3Mi45NzhMNDU2Ljg4Niw3NzYuNzkiIGlkPSJMX0RfRV8wIiBjbGFzcz0iZWRnZS10aGlja25lc3Mtbm9ybWFsIGVkZ2UtcGF0dGVybi1zb2xpZCBlZGdlLXRoaWNrbmVzcy1ub3JtYWwgZWRnZS1wYXR0ZXJuLXNvbGlkIGZsb3djaGFydC1saW5rIiBzdHlsZT0iOyIgZGF0YS1lZGdlPSJ0cnVlIiBkYXRhLWV0PSJlZGdlIiBkYXRhLWlkPSJMX0RfRV8wIiBkYXRhLXBvaW50cz0iVzNzaWVDSTZORGt6TGpNek16TXpNemsyT1RFeE5qSXNJbmtpT2pZNE1TNDJOalkyTnpFM05USTVNamszZlN4N0luZ2lPalE1TXk0ek16TXpNek01TmpreE1UWXlMQ0o1SWpvM05UTXVPVEUyTmpjeE56VXlPVEk1TjMwc2V5SjRJam8wTlRNdU5EazNOelU0TkRFeU1EUXdOQ3dpZVNJNk56YzRMamt4TmpZM01UYzFNamt5T1RkOVhRPT0iIG1hcmtlci1lbmQ9InVybCgjZ2VNZXJtYWlkT3V0cHV0LTE3NjEzOTg4NDcyOTNfZmxvd2NoYXJ0LXYyLXBvaW50RW5kKSI+PC9wYXRoPjxwYXRoIGQ9Ik00MDQuNSw4NDAuNDE3TDQwNC41LDg0NC41ODNDNDA0LjUsODQ4Ljc1LDQwNC41LDg1Ny4wODMsNDA0LjUsODY0Ljc1QzQwNC41LDg3Mi40MTcsNDA0LjUsODc5LjQxNyw0MDQuNSw4ODIuOTE3TDQwNC41LDg4Ni40MTciIGlkPSJMX0VfRl8wIiBjbGFzcz0iZWRnZS10aGlja25lc3Mtbm9ybWFsIGVkZ2UtcGF0dGVybi1zb2xpZCBlZGdlLXRoaWNrbmVzcy1ub3JtYWwgZWRnZS1wYXR0ZXJuLXNvbGlkIGZsb3djaGFydC1saW5rIiBzdHlsZT0iOyIgZGF0YS1lZGdlPSJ0cnVlIiBkYXRhLWV0PSJlZGdlIiBkYXRhLWlkPSJMX0VfRl8wIiBkYXRhLXBvaW50cz0iVzNzaWVDSTZOREEwTGpVd01EQXdNRFEzTmpnek56RTJMQ0o1SWpvNE5EQXVOREUyTmpjeE56VXlPVEk1TjMwc2V5SjRJam8wTURRdU5UQXdNREF3TkRjMk9ETTNNVFlzSW5raU9qZzJOUzQwTVRZMk56RTNOVEk1TWprM2ZTeDdJbmdpT2pRd05DNDFNREF3TURBME56WTRNemN4Tml3aWVTSTZPRGt3TGpReE5qWTNNVGMxTWpreU9UZDlYUT09IiBtYXJrZXItZW5kPSJ1cmwoI2dlTWVybWFpZE91dHB1dC0xNzYxMzk4ODQ3MjkzX2Zsb3djaGFydC12Mi1wb2ludEVuZCkiPjwvcGF0aD48cGF0aCBkPSJNNDA0LjUsOTgzLjQxN0w0MDQuNSw5ODcuNTgzQzQwNC41LDk5MS43NSw0MDQuNSwxMDAwLjA4Myw0MDQuNSwxMDA3Ljc1QzQwNC41LDEwMTUuNDE3LDQwNC41LDEwMjIuNDE3LDQwNC41LDEwMjUuOTE3TDQwNC41LDEwMjkuNDE3IiBpZD0iTF9GX0dfMCIgY2xhc3M9ImVkZ2UtdGhpY2tuZXNzLW5vcm1hbCBlZGdlLXBhdHRlcm4tc29saWQgZWRnZS10aGlja25lc3Mtbm9ybWFsIGVkZ2UtcGF0dGVybi1zb2xpZCBmbG93Y2hhcnQtbGluayIgc3R5bGU9IjsiIGRhdGEtZWRnZT0idHJ1ZSIgZGF0YS1ldD0iZWRnZSIgZGF0YS1pZD0iTF9GX0dfMCIgZGF0YS1wb2ludHM9Ilczc2llQ0k2TkRBMExqVXdNREF3TURRM05qZ3pOekUyTENKNUlqbzVPRE11TkRFMk5qY3hOelV5T1RJNU4zMHNleUo0SWpvME1EUXVOVEF3TURBd05EYzJPRE0zTVRZc0lua2lPakV3TURndU5ERTJOamN4TnpVeU9USTVOMzBzZXlKNElqbzBNRFF1TlRBd01EQXdORGMyT0RNM01UWXNJbmtpT2pFd016TXVOREUyTmpjeE56VXlPVEk1TjMxZCIgbWFya2VyLWVuZD0idXJsKCNnZU1lcm1haWRPdXRwdXQtMTc2MTM5ODg0NzI5M19mbG93Y2hhcnQtdjItcG9pbnRFbmQpIj48L3BhdGg+PHBhdGggZD0iTTQwNC41LDEwOTQuOTE3TDQwNC41LDEwOTkuMDgzQzQwNC41LDExMDMuMjUsNDA0LjUsMTExMS41ODMsNDEwLjExNCwxMTE5LjU0M0M0MTUuNzI3LDExMjcuNTAzLDQyNi45NTQsMTEzNS4wOSw0MzIuNTY4LDExMzguODg0TDQzOC4xODEsMTE0Mi42NzciIGlkPSJMX0dfSF8wIiBjbGFzcz0iZWRnZS10aGlja25lc3Mtbm9ybWFsIGVkZ2UtcGF0dGVybi1zb2xpZCBlZGdlLXRoaWNrbmVzcy1ub3JtYWwgZWRnZS1wYXR0ZXJuLXNvbGlkIGZsb3djaGFydC1saW5rIiBzdHlsZT0iOyIgZGF0YS1lZGdlPSJ0cnVlIiBkYXRhLWV0PSJlZGdlIiBkYXRhLWlkPSJMX0dfSF8wIiBkYXRhLXBvaW50cz0iVzNzaWVDSTZOREEwTGpVd01EQXdNRFEzTmpnek56RTJMQ0o1SWpveE1EazBMamt4TmpZM01UYzFNamt5T1RkOUxIc2llQ0k2TkRBMExqVXdNREF3TURRM05qZ3pOekUyTENKNUlqb3hNVEU1TGpreE5qWTNNVGMxTWpreU9UZDlMSHNpZUNJNk5EUXhMalE1TlRVeE5qRTNNVGt3TkRRc0lua2lPakV4TkRRdU9URTJOamN4TnpVeU9USTVOMzFkIiBtYXJrZXItZW5kPSJ1cmwoI2dlTWVybWFpZE91dHB1dC0xNzYxMzk4ODQ3MjkzX2Zsb3djaGFydC12Mi1wb2ludEVuZCkiPjwvcGF0aD48cGF0aCBkPSJNNTU5LDExNTIuMjM5TDU3NS41NTYsMTE0Ni44NTJDNTkyLjExMSwxMTQxLjQ2NSw2MjUuMjIyLDExMzAuNjkxLDY0MS43NzgsMTExNi4wMTJDNjU4LjMzMywxMTAxLjMzMyw2NTguMzMzLDEwODIuNzUsNjU4LjMzMywxMDY0LjE2N0M2NTguMzMzLDEwNDUuNTgzLDY1OC4zMzMsMTAyNyw2NTguMzMzLDEwMDUuNzkyQzY1OC4zMzMsOTg0LjU4Myw2NTguMzMzLDk2MC43NSw2NTguMzMzLDkzNi45MTdDNjU4LjMzMyw5MTMuMDgzLDY1OC4zMzMsODg5LjI1LDY1OC4zMzMsODY4LjA0MkM2NTguMzMzLDg0Ni44MzMsNjU4LjMzMyw4MjguMjUsNjU4LjMzMyw4MDkuNjY3QzY1OC4zMzMsNzkxLjA4Myw2NTguMzMzLDc3Mi41LDY1OC4zMzMsNzQzLjQxN0M2NTguMzMzLDcxNC4zMzMsNjU4LjMzMyw2NzQuNzUsNjU4LjMzMyw2MzIuNUM2NTguMzMzLDU5MC4yNSw2NTguMzMzLDU0NS4zMzMsNjU4LjMzMyw0OTkuNjMyQzY1OC4zMzMsNDUzLjkzMSw2NTguMzMzLDQwNy40NDQsNjU4LjMzMywzNjMuNjI1QzY1OC4zMzMsMzE5LjgwNiw2NTguMzMzLDI3OC42NTMsNjQ4Ljk2NCwyNTQuMTY2QzYzOS41OTUsMjI5LjY4LDYyMC44NTYsMjIxLjg2LDYxMS40ODcsMjE3Ljk1TDYwMi4xMTgsMjE0LjA0MSIgaWQ9IkxfSF9CXzAiIGNsYXNzPSJlZGdlLXRoaWNrbmVzcy1ub3JtYWwgZWRnZS1wYXR0ZXJuLXNvbGlkIGVkZ2UtdGhpY2tuZXNzLW5vcm1hbCBlZGdlLXBhdHRlcm4tc29saWQgZmxvd2NoYXJ0LWxpbmsiIHN0eWxlPSI7IiBkYXRhLWVkZ2U9InRydWUiIGRhdGEtZXQ9ImVkZ2UiIGRhdGEtaWQ9IkxfSF9CXzAiIGRhdGEtcG9pbnRzPSJXM3NpZUNJNk5UVTVMakF3TURBd01EUTNOamd6TnpJc0lua2lPakV4TlRJdU1qTTROalUyTWpFd05EWXhOSDBzZXlKNElqbzJOVGd1TXpNek16TXpPVFk1TVRFMk1pd2llU0k2TVRFeE9TNDVNVFkyTnpFM05USTVNamszZlN4N0luZ2lPalkxT0M0ek16TXpNek01TmpreE1UWXlMQ0o1SWpveE1EWTBMakUyTmpZM01UYzFNamt5T1RkOUxIc2llQ0k2TmpVNExqTXpNek16TXprMk9URXhOaklzSW5raU9qRXdNRGd1TkRFMk5qY3hOelV5T1RJNU4zMHNleUo0SWpvMk5UZ3VNek16TXpNek9UWTVNVEUyTWl3aWVTSTZPVE0yTGpreE5qWTNNVGMxTWpreU9UZDlMSHNpZUNJNk5qVTRMak16TXpNek16azJPVEV4TmpJc0lua2lPamcyTlM0ME1UWTJOekUzTlRJNU1qazNmU3g3SW5naU9qWTFPQzR6TXpNek16TTVOamt4TVRZeUxDSjVJam80TURrdU5qWTJOamN4TnpVeU9USTVOMzBzZXlKNElqbzJOVGd1TXpNek16TXpPVFk1TVRFMk1pd2llU0k2TnpVekxqa3hOalkzTVRjMU1qa3lPVGQ5TEhzaWVDSTZOalU0TGpNek16TXpNemsyT1RFeE5qSXNJbmtpT2pZek5TNHhOalkyTnpFM05USTVNamszZlN4N0luZ2lPalkxT0M0ek16TXpNek01TmpreE1UWXlMQ0o1SWpvMU1EQXVOREUyTmpjeE56VXlPVEk1TjMwc2V5SjRJam8yTlRndU16TXpNek16T1RZNU1URTJNaXdpZVNJNk16WXdMamsxT0RNek5UZzNOalEyTkRnMGZTeDdJbmdpT2pZMU9DNHpNek16TXpNNU5qa3hNVFl5TENKNUlqb3lNemN1Tlgwc2V5SjRJam8xT1RndU5ESTJOVGMwTURBMk56Z3dPU3dpZVNJNk1qRXlMalY5WFE9PSIgbWFya2VyLWVuZD0idXJsKCNnZU1lcm1haWRPdXRwdXQtMTc2MTM5ODg0NzI5M19mbG93Y2hhcnQtdjItcG9pbnRFbmQpIj48L3BhdGg+PHBhdGggZD0iTTI2MC41MDYsNDA0LjI1NkwyNDAuMDg4LDQyMC4yODNDMjE5LjY3MSw0MzYuMzEsMTc4LjgzNSw0NjguMzYzLDE1OC40MTgsNDkwLjU1N0MxMzgsNTEyLjc1LDEzOCw1MjUuMDgzLDEzOCw1MzEuMjVMMTM4LDUzNy40MTciIGlkPSJMX0NfQ2Rlc2NfMCIgY2xhc3M9ImVkZ2UtdGhpY2tuZXNzLW5vcm1hbCBlZGdlLXBhdHRlcm4tZG90dGVkIGVkZ2UtdGhpY2tuZXNzLW5vcm1hbCBlZGdlLXBhdHRlcm4tc29saWQgZmxvd2NoYXJ0LWxpbmsiIHN0eWxlPSI7IiBkYXRhLWVkZ2U9InRydWUiIGRhdGEtZXQ9ImVkZ2UiIGRhdGEtaWQ9IkxfQ19DZGVzY18wIiBkYXRhLXBvaW50cz0iVzNzaWVDSTZNall3TGpVd05qRTVOalEyTWpnek1qUXNJbmtpT2pRd05DNHlOVFl5TURFeU16RXlNRE01ZlN4N0luZ2lPakV6T0N3aWVTSTZOVEF3TGpReE5qWTNNVGMxTWpreU9UZDlMSHNpZUNJNk1UTTRMQ0o1SWpvMU5ERXVOREUyTmpjeE56VXlPVEk1TjMxZCIgbWFya2VyLWVuZD0idXJsKCNnZU1lcm1haWRPdXRwdXQtMTc2MTM5ODg0NzI5M19mbG93Y2hhcnQtdjItcG9pbnRFbmQpIj48L3BhdGg+PC9nPjxnIGNsYXNzPSJlZGdlTGFiZWxzIj48Zz48cmVjdCBjbGFzcz0iYmFja2dyb3VuZCIgc3R5bGU9InN0cm9rZTogbm9uZSI+PC9yZWN0PjwvZz48Zz48cmVjdCBjbGFzcz0iYmFja2dyb3VuZCIgc3R5bGU9InN0cm9rZTogbm9uZSI+PC9yZWN0PjwvZz48Zz48cmVjdCBjbGFzcz0iYmFja2dyb3VuZCIgc3R5bGU9InN0cm9rZTogbm9uZSI+PC9yZWN0PjwvZz48Zz48cmVjdCBjbGFzcz0iYmFja2dyb3VuZCIgc3R5bGU9InN0cm9rZTogbm9uZSI+PC9yZWN0PjwvZz48Zz48cmVjdCBjbGFzcz0iYmFja2dyb3VuZCIgc3R5bGU9InN0cm9rZTogbm9uZSI+PC9yZWN0PjwvZz48Zz48cmVjdCBjbGFzcz0iYmFja2dyb3VuZCIgc3R5bGU9InN0cm9rZTogbm9uZSI+PC9yZWN0PjwvZz48Zz48cmVjdCBjbGFzcz0iYmFja2dyb3VuZCIgc3R5bGU9InN0cm9rZTogbm9uZSI+PC9yZWN0PjwvZz48ZyBjbGFzcz0iZWRnZUxhYmVsIj48ZyBjbGFzcz0ibGFiZWwiIGRhdGEtaWQ9IkxfQV9CXzAiIHRyYW5zZm9ybT0idHJhbnNsYXRlKDAsIDApIj48dGV4dCB5PSItMTAuMSI+PHRzcGFuIGNsYXNzPSJ0ZXh0LW91dGVyLXRzcGFuIiB4PSIwIiB5PSItMC4xZW0iIGR5PSIxLjFlbSI+PC90c3Bhbj48L3RleHQ+PC9nPjwvZz48ZyBjbGFzcz0iZWRnZUxhYmVsIj48ZyBjbGFzcz0ibGFiZWwiIGRhdGEtaWQ9IkxfQl9DXzAiIHRyYW5zZm9ybT0idHJhbnNsYXRlKDAsIDApIj48dGV4dCB5PSItMTAuMSI+PHRzcGFuIGNsYXNzPSJ0ZXh0LW91dGVyLXRzcGFuIiB4PSIwIiB5PSItMC4xZW0iIGR5PSIxLjFlbSI+PC90c3Bhbj48L3RleHQ+PC9nPjwvZz48ZyBjbGFzcz0iZWRnZUxhYmVsIiB0cmFuc2Zvcm09InRyYW5zbGF0ZSgzMTUuNjY2NjY2OTg0NTU4MSwgNjM1LjE2NjY3MTc1MjkyOTcpIj48ZyBjbGFzcz0ibGFiZWwiIGRhdGEtaWQ9IkxfQ19FXzAiIHRyYW5zZm9ybT0idHJhbnNsYXRlKC0xMi42NjY2NjY5ODQ1NTgxMDUsIC0xNikiPjxnPjxyZWN0IGNsYXNzPSJiYWNrZ3JvdW5kIiBzdHlsZT0iIiB4PSItMiIgeT0iLTMuNjY2NjY1NDM0ODM3MzQxMyIgd2lkdGg9IjI1LjMzMzMzMzk2OTExNjIxIiBoZWlnaHQ9IjMyIj48L3JlY3Q+PHRleHQgeT0iLTEwLjEiIHN0eWxlPSIiPjx0c3BhbiBjbGFzcz0idGV4dC1vdXRlci10c3BhbiIgeD0iMCIgeT0iLTAuMWVtIiBkeT0iMS4xZW0iPjx0c3BhbiBmb250LXN0eWxlPSJub3JtYWwiIGNsYXNzPSJ0ZXh0LWlubmVyLXRzcGFuIiBmb250LXdlaWdodD0ibm9ybWFsIj7lkKY8L3RzcGFuPjwvdHNwYW4+PC90ZXh0PjwvZz48L2c+PC9nPjxnIGNsYXNzPSJlZGdlTGFiZWwiIHRyYW5zZm9ybT0idHJhbnNsYXRlKDQ5My4zMzMzMzM5NjkxMTYyLCA1MDAuNDE2NjcxNzUyOTI5NykiPjxnIGNsYXNzPSJsYWJlbCIgZGF0YS1pZD0iTF9DX0RfMCIgdHJhbnNmb3JtPSJ0cmFuc2xhdGUoLTEzLCAtMTYpIj48Zz48cmVjdCBjbGFzcz0iYmFja2dyb3VuZCIgc3R5bGU9IiIgeD0iLTIuNjY2NjY2Njg2NTM0ODgxNiIgeT0iLTMuNjY2NjY1NDM0ODM3MzQxMyIgd2lkdGg9IjI2IiBoZWlnaHQ9IjMyIj48L3JlY3Q+PHRleHQgeT0iLTEwLjEiIHN0eWxlPSIiPjx0c3BhbiBjbGFzcz0idGV4dC1vdXRlci10c3BhbiIgeD0iMCIgeT0iLTAuMWVtIiBkeT0iMS4xZW0iPjx0c3BhbiBmb250LXN0eWxlPSJub3JtYWwiIGNsYXNzPSJ0ZXh0LWlubmVyLXRzcGFuIiBmb250LXdlaWdodD0ibm9ybWFsIj7mmK88L3RzcGFuPjwvdHNwYW4+PC90ZXh0PjwvZz48L2c+PC9nPjxnIGNsYXNzPSJlZGdlTGFiZWwiPjxnIGNsYXNzPSJsYWJlbCIgZGF0YS1pZD0iTF9EX0VfMCIgdHJhbnNmb3JtPSJ0cmFuc2xhdGUoMCwgMCkiPjx0ZXh0IHk9Ii0xMC4xIj48dHNwYW4gY2xhc3M9InRleHQtb3V0ZXItdHNwYW4iIHg9IjAiIHk9Ii0wLjFlbSIgZHk9IjEuMWVtIj48L3RzcGFuPjwvdGV4dD48L2c+PC9nPjxnIGNsYXNzPSJlZGdlTGFiZWwiPjxnIGNsYXNzPSJsYWJlbCIgZGF0YS1pZD0iTF9FX0ZfMCIgdHJhbnNmb3JtPSJ0cmFuc2xhdGUoMCwgMCkiPjx0ZXh0IHk9Ii0xMC4xIj48dHNwYW4gY2xhc3M9InRleHQtb3V0ZXItdHNwYW4iIHg9IjAiIHk9Ii0wLjFlbSIgZHk9IjEuMWVtIj48L3RzcGFuPjwvdGV4dD48L2c+PC9nPjxnIGNsYXNzPSJlZGdlTGFiZWwiPjxnIGNsYXNzPSJsYWJlbCIgZGF0YS1pZD0iTF9GX0dfMCIgdHJhbnNmb3JtPSJ0cmFuc2xhdGUoMCwgMCkiPjx0ZXh0IHk9Ii0xMC4xIj48dHNwYW4gY2xhc3M9InRleHQtb3V0ZXItdHNwYW4iIHg9IjAiIHk9Ii0wLjFlbSIgZHk9IjEuMWVtIj48L3RzcGFuPjwvdGV4dD48L2c+PC9nPjxnIGNsYXNzPSJlZGdlTGFiZWwiPjxnIGNsYXNzPSJsYWJlbCIgZGF0YS1pZD0iTF9HX0hfMCIgdHJhbnNmb3JtPSJ0cmFuc2xhdGUoMCwgMCkiPjx0ZXh0IHk9Ii0xMC4xIj48dHNwYW4gY2xhc3M9InRleHQtb3V0ZXItdHNwYW4iIHg9IjAiIHk9Ii0wLjFlbSIgZHk9IjEuMWVtIj48L3RzcGFuPjwvdGV4dD48L2c+PC9nPjxnIGNsYXNzPSJlZGdlTGFiZWwiPjxnIGNsYXNzPSJsYWJlbCIgZGF0YS1pZD0iTF9IX0JfMCIgdHJhbnNmb3JtPSJ0cmFuc2xhdGUoMCwgMCkiPjx0ZXh0IHk9Ii0xMC4xIj48dHNwYW4gY2xhc3M9InRleHQtb3V0ZXItdHNwYW4iIHg9IjAiIHk9Ii0wLjFlbSIgZHk9IjEuMWVtIj48L3RzcGFuPjwvdGV4dD48L2c+PC9nPjxnIGNsYXNzPSJlZGdlTGFiZWwiIHRyYW5zZm9ybT0idHJhbnNsYXRlKDEzOCwgNTAwLjQxNjY3MTc1MjkyOTcpIj48ZyBjbGFzcz0ibGFiZWwiIGRhdGEtaWQ9IkxfQ19DZGVzY18wIiB0cmFuc2Zvcm09InRyYW5zbGF0ZSgtMjMsIC0xNikiPjxnPjxyZWN0IGNsYXNzPSJiYWNrZ3JvdW5kIiBzdHlsZT0iIiB4PSItMiIgeT0iLTMuNjY2NjY1NDM0ODM3MzQxMyIgd2lkdGg9IjQ2IiBoZWlnaHQ9IjMyIj48L3JlY3Q+PHRleHQgeT0iLTEwLjEiIHN0eWxlPSIiPjx0c3BhbiBjbGFzcz0idGV4dC1vdXRlci10c3BhbiIgeD0iMCIgeT0iLTAuMWVtIiBkeT0iMS4xZW0iPjx0c3BhbiBmb250LXN0eWxlPSJub3JtYWwiIGNsYXNzPSJ0ZXh0LWlubmVyLXRzcGFuIiBmb250LXdlaWdodD0ibm9ybWFsIj7or7TmmI48L3RzcGFuPjwvdHNwYW4+PC90ZXh0PjwvZz48L2c+PC9nPjwvZz48ZyBjbGFzcz0ibm9kZXMiPjxnIGNsYXNzPSJub2RlIGRlZmF1bHQiIGlkPSJmbG93Y2hhcnQtQS0wIiB0cmFuc2Zvcm09InRyYW5zbGF0ZSg0ODcuMDAwMDAwNDc2ODM3MTYsIDM4Ljc1KSI+PHJlY3QgY2xhc3M9ImJhc2ljIGxhYmVsLWNvbnRhaW5lciIgc3R5bGU9IiIgeD0iLTUxIiB5PSItMzAuNzUiIHdpZHRoPSIxMDIiIGhlaWdodD0iNjEuNSI+PC9yZWN0PjxnIGNsYXNzPSJsYWJlbCIgc3R5bGU9IiIgdHJhbnNmb3JtPSJ0cmFuc2xhdGUoLTIxLCAtMTUuNzUpIj48cmVjdD48L3JlY3Q+PGZvcmVpZ25PYmplY3Qgd2lkdGg9IjQyIiBoZWlnaHQ9IjMxLjUiPjxkaXYgeG1sbnM9Imh0dHA6Ly93d3cudzMub3JnLzE5OTkveGh0bWwiIHN0eWxlPSJkaXNwbGF5OiB0YWJsZS1jZWxsOyB3aGl0ZS1zcGFjZTogbm93cmFwOyBsaW5lLWhlaWdodDogMS41OyBtYXgtd2lkdGg6IDIwMHB4OyB0ZXh0LWFsaWduOiBjZW50ZXI7Ij48c3BhbiBjbGFzcz0ibm9kZUxhYmVsIj48cD7lvIDlp4s8L3A+PC9zcGFuPjwvZGl2PjwvZm9yZWlnbk9iamVjdD48L2c+PC9nPjxnIGNsYXNzPSJub2RlIGRlZmF1bHQiIGlkPSJmbG93Y2hhcnQtQi0xIiB0cmFuc2Zvcm09InRyYW5zbGF0ZSg0ODcuMDAwMDAwNDc2ODM3MTYsIDE2NikiPjxyZWN0IGNsYXNzPSJiYXNpYyBsYWJlbC1jb250YWluZXIiIHN0eWxlPSIiIHg9Ii0xMzAiIHk9Ii00Ni41IiB3aWR0aD0iMjYwIiBoZWlnaHQ9IjkzIj48L3JlY3Q+PGcgY2xhc3M9ImxhYmVsIiBzdHlsZT0iIiB0cmFuc2Zvcm09InRyYW5zbGF0ZSgtMTAwLCAtMzEuNSkiPjxyZWN0PjwvcmVjdD48Zm9yZWlnbk9iamVjdCB3aWR0aD0iMjAwIiBoZWlnaHQ9IjYzIj48ZGl2IHhtbG5zPSJodHRwOi8vd3d3LnczLm9yZy8xOTk5L3hodG1sIiBzdHlsZT0iZGlzcGxheTogdGFibGU7IHdoaXRlLXNwYWNlOiBicmVhay1zcGFjZXM7IGxpbmUtaGVpZ2h0OiAxLjU7IG1heC13aWR0aDogMjAwcHg7IHRleHQtYWxpZ246IGNlbnRlcjsgd2lkdGg6IDIwMHB4OyI+PHNwYW4gY2xhc3M9Im5vZGVMYWJlbCI+PHA+5pS26ZuG5L+h5oGvOiDlsLHnu6rpm4Yg6auY5LyY5Lu75YqhIOWPr+eUqOi1hOa6kDwvcD48L3NwYW4+PC9kaXY+PC9mb3JlaWduT2JqZWN0PjwvZz48L2c+PGcgY2xhc3M9Im5vZGUgZGVmYXVsdCIgaWQ9ImZsb3djaGFydC1DLTIiIHRyYW5zZm9ybT0idHJhbnNsYXRlKDMxNS42NjY2NjY5ODQ1NTgxLCAzNjAuOTU4MzM1ODc2NDY0ODQpIj48cG9seWdvbiBwb2ludHM9Ijk4LjQ1ODMzNTg3NjQ2NDg0LDAgMTk2LjkxNjY3MTc1MjkyOTcsLTk4LjQ1ODMzNTg3NjQ2NDg0IDk4LjQ1ODMzNTg3NjQ2NDg0LC0xOTYuOTE2NjcxNzUyOTI5NyAwLC05OC40NTgzMzU4NzY0NjQ4NCIgY2xhc3M9ImxhYmVsLWNvbnRhaW5lciIgdHJhbnNmb3JtPSJ0cmFuc2xhdGUoLTk3Ljk1ODMzNTg3NjQ2NDg0LCA5OC40NTgzMzU4NzY0NjQ4NCkiPjwvcG9seWdvbj48ZyBjbGFzcz0ibGFiZWwiIHN0eWxlPSIiIHRyYW5zZm9ybT0idHJhbnNsYXRlKC02Ny43MDgzMzU4NzY0NjQ4NCwgLTE1Ljc1KSI+PHJlY3Q+PC9yZWN0Pjxmb3JlaWduT2JqZWN0IHdpZHRoPSIxMzUuNDE2NjcxNzUyOTI5NyIgaGVpZ2h0PSIzMS41Ij48ZGl2IHhtbG5zPSJodHRwOi8vd3d3LnczLm9yZy8xOTk5L3hodG1sIiBzdHlsZT0iZGlzcGxheTogdGFibGUtY2VsbDsgd2hpdGUtc3BhY2U6IG5vd3JhcDsgbGluZS1oZWlnaHQ6IDEuNTsgbWF4LXdpZHRoOiAyMDBweDsgdGV4dC1hbGlnbjogY2VudGVyOyI+PHNwYW4gY2xhc3M9Im5vZGVMYWJlbCI+PHA+5ruh6Laz5oqi5Y2g5p2h5Lu2PzwvcD48L3NwYW4+PC9kaXY+PC9mb3JlaWduT2JqZWN0PjwvZz48L2c+PGcgY2xhc3M9Im5vZGUgZGVmYXVsdCIgaWQ9ImZsb3djaGFydC1DZGVzYy0zIiB0cmFuc2Zvcm09InRyYW5zbGF0ZSgxMzgsIDYzNS4xNjY2NzE3NTI5Mjk3KSI+PHJlY3QgY2xhc3M9ImJhc2ljIGxhYmVsLWNvbnRhaW5lciIgc3R5bGU9IiIgeD0iLTEzMCIgeT0iLTkzLjc1IiB3aWR0aD0iMjYwIiBoZWlnaHQ9IjE4Ny41Ij48L3JlY3Q+PGcgY2xhc3M9ImxhYmVsIiBzdHlsZT0iIiB0cmFuc2Zvcm09InRyYW5zbGF0ZSgtMTAwLCAtNzguNzUpIj48cmVjdD48L3JlY3Q+PGZvcmVpZ25PYmplY3Qgd2lkdGg9IjIwMCIgaGVpZ2h0PSIxNTcuNSI+PGRpdiB4bWxucz0iaHR0cDovL3d3dy53My5vcmcvMTk5OS94aHRtbCIgc3R5bGU9ImRpc3BsYXk6IHRhYmxlOyB3aGl0ZS1zcGFjZTogYnJlYWstc3BhY2VzOyBsaW5lLWhlaWdodDogMS41OyBtYXgtd2lkdGg6IDIwMHB4OyB0ZXh0LWFsaWduOiBjZW50ZXI7IHdpZHRoOiAyMDBweDsiPjxzcGFuIGNsYXNzPSJub2RlTGFiZWwiPjxwPuaKouWNoOadoeS7tjog6auY5LyY5Yiw6L6+5LiU6LWE5rqQ5LiN6LazOyDpq5jkvJjmlLbnm4rlr4bluqbmm7Tpq5g7IOWHgOaUtuebiuWkp+S6jumYiOWAvDsg6KKr5oqi5Lu75Yqh5bey6L+H5pyA5bCP6L+Q6KGM6YePPC9wPjwvc3Bhbj48L2Rpdj48L2ZvcmVpZ25PYmplY3Q+PC9nPjwvZz48ZyBjbGFzcz0ibm9kZSBkZWZhdWx0IiBpZD0iZmxvd2NoYXJ0LUQtNCIgdHJhbnNmb3JtPSJ0cmFuc2xhdGUoNDkzLjMzMzMzMzk2OTExNjIsIDYzNS4xNjY2NzE3NTI5Mjk3KSI+PHJlY3QgY2xhc3M9ImJhc2ljIGxhYmVsLWNvbnRhaW5lciIgc3R5bGU9IiIgeD0iLTEzMCIgeT0iLTQ2LjUiIHdpZHRoPSIyNjAiIGhlaWdodD0iOTMiPjwvcmVjdD48ZyBjbGFzcz0ibGFiZWwiIHN0eWxlPSIiIHRyYW5zZm9ybT0idHJhbnNsYXRlKC0xMDAsIC0zMS41KSI+PHJlY3Q+PC9yZWN0Pjxmb3JlaWduT2JqZWN0IHdpZHRoPSIyMDAiIGhlaWdodD0iNjMiPjxkaXYgeG1sbnM9Imh0dHA6Ly93d3cudzMub3JnLzE5OTkveGh0bWwiIHN0eWxlPSJkaXNwbGF5OiB0YWJsZTsgd2hpdGUtc3BhY2U6IGJyZWFrLXNwYWNlczsgbGluZS1oZWlnaHQ6IDEuNTsgbWF4LXdpZHRoOiAyMDBweDsgdGV4dC1hbGlnbjogY2VudGVyOyB3aWR0aDogMjAwcHg7Ij48c3BhbiBjbGFzcz0ibm9kZUxhYmVsIj48cD7miqLljaA6IOaaguWBnOS9juS8mOaIluS9juaUtuebiuS7u+WKoTwvcD48L3NwYW4+PC9kaXY+PC9mb3JlaWduT2JqZWN0PjwvZz48L2c+PGcgY2xhc3M9Im5vZGUgZGVmYXVsdCIgaWQ9ImZsb3djaGFydC1FLTUiIHRyYW5zZm9ybT0idHJhbnNsYXRlKDQwNC41MDAwMDA0NzY4MzcxNiwgODA5LjY2NjY3MTc1MjkyOTcpIj48cmVjdCBjbGFzcz0iYmFzaWMgbGFiZWwtY29udGFpbmVyIiBzdHlsZT0iIiB4PSItOTcuNTIwODM1ODc2NDY0ODQiIHk9Ii0zMC43NSIgd2lkdGg9IjE5NS4wNDE2NzE3NTI5Mjk3IiBoZWlnaHQ9IjYxLjUiPjwvcmVjdD48ZyBjbGFzcz0ibGFiZWwiIHN0eWxlPSIiIHRyYW5zZm9ybT0idHJhbnNsYXRlKC02Ny41MjA4MzU4NzY0NjQ4NCwgLTE1Ljc1KSI+PHJlY3Q+PC9yZWN0Pjxmb3JlaWduT2JqZWN0IHdpZHRoPSIxMzUuMDQxNjcxNzUyOTI5NyIgaGVpZ2h0PSIzMS41Ij48ZGl2IHhtbG5zPSJodHRwOi8vd3d3LnczLm9yZy8xOTk5L3hodG1sIiBzdHlsZT0iZGlzcGxheTogdGFibGUtY2VsbDsgd2hpdGUtc3BhY2U6IG5vd3JhcDsgbGluZS1oZWlnaHQ6IDEuNTsgbWF4LXdpZHRoOiAyMDBweDsgdGV4dC1hbGlnbjogY2VudGVyOyI+PHNwYW4gY2xhc3M9Im5vZGVMYWJlbCI+PHA+5o6l57qz6auY5LyYOlNSUFQ8L3A+PC9zcGFuPjwvZGl2PjwvZm9yZWlnbk9iamVjdD48L2c+PC9nPjxnIGNsYXNzPSJub2RlIGRlZmF1bHQiIGlkPSJmbG93Y2hhcnQtRi02IiB0cmFuc2Zvcm09InRyYW5zbGF0ZSg0MDQuNTAwMDAwNDc2ODM3MTYsIDkzNi45MTY2NzE3NTI5Mjk3KSI+PHJlY3QgY2xhc3M9ImJhc2ljIGxhYmVsLWNvbnRhaW5lciIgc3R5bGU9IiIgeD0iLTEzMCIgeT0iLTQ2LjUiIHdpZHRoPSIyNjAiIGhlaWdodD0iOTMiPjwvcmVjdD48ZyBjbGFzcz0ibGFiZWwiIHN0eWxlPSIiIHRyYW5zZm9ybT0idHJhbnNsYXRlKC0xMDAsIC0zMS41KSI+PHJlY3Q+PC9yZWN0Pjxmb3JlaWduT2JqZWN0IHdpZHRoPSIyMDAiIGhlaWdodD0iNjMiPjxkaXYgeG1sbnM9Imh0dHA6Ly93d3cudzMub3JnLzE5OTkveGh0bWwiIHN0eWxlPSJkaXNwbGF5OiB0YWJsZTsgd2hpdGUtc3BhY2U6IGJyZWFrLXNwYWNlczsgbGluZS1oZWlnaHQ6IDEuNTsgbWF4LXdpZHRoOiAyMDBweDsgdGV4dC1hbGlnbjogY2VudGVyOyB3aWR0aDogMjAwcHg7Ij48c3BhbiBjbGFzcz0ibm9kZUxhYmVsIj48cD5DTFAg57uG5YyWOiDpgInoioLngrnkuI7otYTmupA8L3A+PC9zcGFuPjwvZGl2PjwvZm9yZWlnbk9iamVjdD48L2c+PC9nPjxnIGNsYXNzPSJub2RlIGRlZmF1bHQiIGlkPSJmbG93Y2hhcnQtRy03IiB0cmFuc2Zvcm09InRyYW5zbGF0ZSg0MDQuNTAwMDAwNDc2ODM3MTYsIDEwNjQuMTY2NjcxNzUyOTI5NykiPjxyZWN0IGNsYXNzPSJiYXNpYyBsYWJlbC1jb250YWluZXIiIHN0eWxlPSIiIHg9Ii0xMDMuNSIgeT0iLTMwLjc1IiB3aWR0aD0iMjA3IiBoZWlnaHQ9IjYxLjUiPjwvcmVjdD48ZyBjbGFzcz0ibGFiZWwiIHN0eWxlPSIiIHRyYW5zZm9ybT0idHJhbnNsYXRlKC03My41LCAtMTUuNzUpIj48cmVjdD48L3JlY3Q+PGZvcmVpZ25PYmplY3Qgd2lkdGg9IjE0NyIgaGVpZ2h0PSIzMS41Ij48ZGl2IHhtbG5zPSJodHRwOi8vd3d3LnczLm9yZy8xOTk5L3hodG1sIiBzdHlsZT0iZGlzcGxheTogdGFibGUtY2VsbDsgd2hpdGUtc3BhY2U6IG5vd3JhcDsgbGluZS1oZWlnaHQ6IDEuNTsgbWF4LXdpZHRoOiAyMDBweDsgdGV4dC1hbGlnbjogY2VudGVyOyI+PHNwYW4gY2xhc3M9Im5vZGVMYWJlbCI+PHA+5omn6KGM5bm26K6w5b2V5oyH5qCHPC9wPjwvc3Bhbj48L2Rpdj48L2ZvcmVpZ25PYmplY3Q+PC9nPjwvZz48ZyBjbGFzcz0ibm9kZSBkZWZhdWx0IiBpZD0iZmxvd2NoYXJ0LUgtOCIgdHJhbnNmb3JtPSJ0cmFuc2xhdGUoNDg3LjAwMDAwMDQ3NjgzNzE2LCAxMTc1LjY2NjY3MTc1MjkyOTcpIj48cmVjdCBjbGFzcz0iYmFzaWMgbGFiZWwtY29udGFpbmVyIiBzdHlsZT0iIiB4PSItNzIiIHk9Ii0zMC43NSIgd2lkdGg9IjE0NCIgaGVpZ2h0PSI2MS41Ij48L3JlY3Q+PGcgY2xhc3M9ImxhYmVsIiBzdHlsZT0iIiB0cmFuc2Zvcm09InRyYW5zbGF0ZSgtNDIsIC0xNS43NSkiPjxyZWN0PjwvcmVjdD48Zm9yZWlnbk9iamVjdCB3aWR0aD0iODQiIGhlaWdodD0iMzEuNSI+PGRpdiB4bWxucz0iaHR0cDovL3d3dy53My5vcmcvMTk5OS94aHRtbCIgc3R5bGU9ImRpc3BsYXk6IHRhYmxlLWNlbGw7IHdoaXRlLXNwYWNlOiBub3dyYXA7IGxpbmUtaGVpZ2h0OiAxLjU7IG1heC13aWR0aDogMjAwcHg7IHRleHQtYWxpZ246IGNlbnRlcjsiPjxzcGFuIGNsYXNzPSJub2RlTGFiZWwiPjxwPuS4i+S4gOaXtumamTwvcD48L3NwYW4+PC9kaXY+PC9mb3JlaWduT2JqZWN0PjwvZz48L2c+PC9nPjwvZz48L2c+PC9zdmc+;" vertex="1" parent="1">
            <mxGeometry x="-160" y="-30" width="666.3330078125" height="1214.416748046875" as="geometry" />
          </mxCell>
        </UserObject>
      </root>
    </mxGraphModel>
  </diagram>
</mxfile>
